<?xml version="1.0" encoding="utf-8" standalone="no"?>
<!DOCTYPE svg PUBLIC "-//W3C//DTD SVG 1.1//EN"
  "http://www.w3.org/Graphics/SVG/1.1/DTD/svg11.dtd">
<!-- Created with matplotlib (http://matplotlib.org/) -->
<svg height="288pt" version="1.1" viewBox="0 0 288 288" width="288pt" xmlns="http://www.w3.org/2000/svg" xmlns:xlink="http://www.w3.org/1999/xlink">
 <defs>
  <style type="text/css">
*{stroke-linecap:butt;stroke-linejoin:round;stroke-miterlimit:100000;}
  </style>
 </defs>
 <g id="figure_1">
  <g id="patch_1">
   <path d="M 0 288 
L 288 288 
L 288 0 
L 0 0 
z
" style="fill:#ffffff;"/>
  </g>
  <g id="axes_1">
   <g id="patch_2">
    <path d="M 43.827503 127.672953 
L 272.759754 127.672953 
L 272.759754 13.039545 
L 43.827503 13.039545 
z
" style="fill:#ffffff;"/>
   </g>
   <g id="matplotlib.axis_1">
    <g id="xtick_1">
     <g id="line2d_1">
      <path clip-path="url(#p26439d481b)" d="M 43.827503 127.672953 
L 43.827503 13.039545 
" style="fill:none;stroke:#cccccc;stroke-linecap:round;stroke-width:0.8;"/>
     </g>
     <g id="line2d_2"/>
     <g id="line2d_3"/>
    </g>
    <g id="xtick_2">
     <g id="line2d_4">
      <path clip-path="url(#p26439d481b)" d="M 101.060566 127.672953 
L 101.060566 13.039545 
" style="fill:none;stroke:#cccccc;stroke-linecap:round;stroke-width:0.8;"/>
     </g>
     <g id="line2d_5"/>
     <g id="line2d_6"/>
    </g>
    <g id="xtick_3">
     <g id="line2d_7">
      <path clip-path="url(#p26439d481b)" d="M 158.293628 127.672953 
L 158.293628 13.039545 
" style="fill:none;stroke:#cccccc;stroke-linecap:round;stroke-width:0.8;"/>
     </g>
     <g id="line2d_8"/>
     <g id="line2d_9"/>
    </g>
    <g id="xtick_4">
     <g id="line2d_10">
      <path clip-path="url(#p26439d481b)" d="M 215.526691 127.672953 
L 215.526691 13.039545 
" style="fill:none;stroke:#cccccc;stroke-linecap:round;stroke-width:0.8;"/>
     </g>
     <g id="line2d_11"/>
     <g id="line2d_12"/>
    </g>
    <g id="xtick_5">
     <g id="line2d_13">
      <path clip-path="url(#p26439d481b)" d="M 272.759754 127.672953 
L 272.759754 13.039545 
" style="fill:none;stroke:#cccccc;stroke-linecap:round;stroke-width:0.8;"/>
     </g>
     <g id="line2d_14"/>
     <g id="line2d_15"/>
    </g>
   </g>
   <g id="matplotlib.axis_2">
    <g id="ytick_1">
     <g id="line2d_16">
      <path clip-path="url(#p26439d481b)" d="M 43.827503 127.672953 
L 272.759754 127.672953 
" style="fill:none;stroke:#cccccc;stroke-linecap:round;stroke-width:0.8;"/>
     </g>
     <g id="line2d_17"/>
     <g id="line2d_18"/>
     <g id="text_1">
      <!-- $0.28$ -->
      <defs>
       <path d="M 41.703125 15.453125 
L 39.90625 15.453125 
C 38.90625 8.375 38.09375 7.171875 37.703125 6.5625 
C 37.203125 5.765625 30 5.765625 28.59375 5.765625 
L 9.40625 5.765625 
C 13 9.671875 20 16.75 28.5 24.953125 
C 34.59375 30.734375 41.703125 37.53125 41.703125 47.421875 
C 41.703125 59.21875 32.296875 66 21.796875 66 
C 10.796875 66 4.09375 56.3125 4.09375 47.34375 
C 4.09375 43.4375 7 42.9375 8.203125 42.9375 
C 9.203125 42.9375 12.203125 43.546875 12.203125 47.03125 
C 12.203125 50.109375 9.59375 51 8.203125 51 
C 7.59375 51 7 50.90625 6.59375 50.703125 
C 8.5 59.21875 14.296875 63.40625 20.40625 63.40625 
C 29.09375 63.40625 34.796875 56.515625 34.796875 47.421875 
C 34.796875 38.734375 29.703125 31.25 24 24.75 
L 4.09375 2.28125 
L 4.09375 0 
L 39.296875 0 
z
" id="CMR17-50"/>
       <path d="M 42 31.640625 
C 42 37.75 41.90625 48.125 37.703125 56.109375 
C 34 63.109375 28.09375 65.59375 22.90625 65.59375 
C 18.09375 65.59375 12 63.40625 8.203125 56.203125 
C 4.203125 48.71875 3.796875 39.4375 3.796875 31.640625 
C 3.796875 25.953125 3.90625 17.28125 7 9.671875 
C 11.296875 -0.609375 19 -2 22.90625 -2 
C 27.5 -2 34.5 -0.109375 38.59375 9.375 
C 41.59375 16.28125 42 24.359375 42 31.640625 
M 22.90625 -0.40625 
C 16.5 -0.40625 12.703125 5.078125 11.296875 12.6875 
C 10.203125 18.5625 10.203125 27.15625 10.203125 32.75 
C 10.203125 40.4375 10.203125 46.828125 11.5 52.921875 
C 13.40625 61.390625 19 64 22.90625 64 
C 27 64 32.296875 61.296875 34.203125 53.125 
C 35.5 47.4375 35.59375 40.734375 35.59375 32.75 
C 35.59375 26.25 35.59375 18.265625 34.40625 12.375 
C 32.296875 1.484375 26.40625 -0.40625 22.90625 -0.40625 
" id="CMR17-48"/>
       <path d="M 27.203125 35.375 
C 33.5 38.546875 39.90625 43.328125 39.90625 50.984375 
C 39.90625 60.015625 31.09375 65.296875 23 65.296875 
C 13.90625 65.296875 5.90625 58.734375 5.90625 49.6875 
C 5.90625 47.203125 6.5 42.921875 10.40625 39.140625 
C 11.40625 38.15625 15.59375 35.171875 18.296875 33.28125 
C 13.796875 30.984375 3.296875 25.53125 3.296875 14.59375 
C 3.296875 4.359375 13.09375 -2 22.796875 -2 
C 33.5 -2 42.5 5.65625 42.5 15.78125 
C 42.5 24.84375 36.40625 29.015625 32.40625 31.703125 
z
M 14.09375 44.09375 
C 13.296875 44.59375 9.296875 47.671875 9.296875 52.359375 
C 9.296875 58.421875 15.59375 63 22.796875 63 
C 30.703125 63 36.5 57.4375 36.5 50.96875 
C 36.5 41.703125 26.09375 36.421875 25.59375 36.421875 
C 25.5 36.421875 25.40625 36.421875 24.59375 37.03125 
z
M 32.5 23.734375 
C 34 22.640625 38.796875 19.375 38.796875 13.296875 
C 38.796875 5.953125 31.40625 0.390625 23 0.390625 
C 13.90625 0.390625 7 6.84375 7 14.6875 
C 7 22.546875 13.09375 29.09375 20 32.1875 
z
" id="CMR17-56"/>
       <path d="M 18.40625 4.796875 
C 18.40625 7.6875 16 9.671875 13.59375 9.671875 
C 10.703125 9.671875 8.703125 7.28125 8.703125 4.890625 
C 8.703125 2 11.09375 0 13.5 0 
C 16.40625 0 18.40625 2.390625 18.40625 4.796875 
" id="CMMI12-58"/>
      </defs>
      <g style="fill:#262626;" transform="translate(25.5338255954 129.540195479)scale(0.07497 -0.07497)">
       <use transform="scale(0.996264009963)" xlink:href="#CMR17-48"/>
       <use transform="translate(45.6904771171 0.0)scale(0.996264009963)" xlink:href="#CMMI12-58"/>
       <use transform="translate(72.7876542069 0.0)scale(0.996264009963)" xlink:href="#CMR17-50"/>
       <use transform="translate(118.478131324 0.0)scale(0.996264009963)" xlink:href="#CMR17-56"/>
      </g>
     </g>
    </g>
    <g id="ytick_2">
     <g id="line2d_19">
      <path clip-path="url(#p26439d481b)" d="M 43.827503 99.014601 
L 272.759754 99.014601 
" style="fill:none;stroke:#cccccc;stroke-linecap:round;stroke-width:0.8;"/>
     </g>
     <g id="line2d_20"/>
     <g id="line2d_21"/>
     <g id="text_2">
      <!-- $0.30$ -->
      <defs>
       <path d="M 22.09375 33.703125 
C 31 33.703125 34.90625 25.96875 34.90625 17.03125 
C 34.90625 5 28.5 0.390625 22.703125 0.390625 
C 17.40625 0.390625 8.796875 3.03125 6.09375 10.828125 
C 6.59375 10.625 7.09375 10.625 7.59375 10.625 
C 10 10.625 11.796875 12.21875 11.796875 14.8125 
C 11.796875 17.703125 9.59375 19 7.59375 19 
C 5.90625 19 3.296875 18.203125 3.296875 14.46875 
C 3.296875 5.234375 12.296875 -2 22.90625 -2 
C 34 -2 42.5 6.71875 42.5 16.953125 
C 42.5 26.671875 34.5 33.6875 25 34.796875 
C 32.59375 36.375 39.90625 43.0625 39.90625 52.015625 
C 39.90625 59.6875 32 65.296875 23 65.296875 
C 13.90625 65.296875 5.90625 59.828125 5.90625 52.015625 
C 5.90625 48.59375 8.5 48 9.796875 48 
C 11.90625 48 13.703125 49.296875 13.703125 51.890625 
C 13.703125 54.46875 11.90625 55.765625 9.796875 55.765625 
C 9.40625 55.765625 8.90625 55.765625 8.5 55.578125 
C 11.40625 61.859375 19.296875 63 22.796875 63 
C 26.296875 63 32.90625 61.328125 32.90625 51.875 
C 32.90625 49.109375 32.5 44.1875 29.09375 39.84375 
C 26.09375 36 22.703125 36 19.40625 35.6875 
C 18.90625 35.6875 16.59375 35.453125 16.203125 35.453125 
C 15.5 35.359375 15.09375 35.265625 15.09375 34.5 
C 15.09375 33.796875 15.203125 33.703125 17.203125 33.703125 
z
" id="CMR17-51"/>
      </defs>
      <g style="fill:#262626;" transform="translate(25.5338255954 100.881843444)scale(0.07497 -0.07497)">
       <use transform="scale(0.996264009963)" xlink:href="#CMR17-48"/>
       <use transform="translate(45.6904771171 0.0)scale(0.996264009963)" xlink:href="#CMMI12-58"/>
       <use transform="translate(72.7876542069 0.0)scale(0.996264009963)" xlink:href="#CMR17-51"/>
       <use transform="translate(118.478131324 0.0)scale(0.996264009963)" xlink:href="#CMR17-48"/>
      </g>
     </g>
    </g>
    <g id="ytick_3">
     <g id="line2d_22">
      <path clip-path="url(#p26439d481b)" d="M 43.827503 70.356249 
L 272.759754 70.356249 
" style="fill:none;stroke:#cccccc;stroke-linecap:round;stroke-width:0.8;"/>
     </g>
     <g id="line2d_23"/>
     <g id="line2d_24"/>
     <g id="text_3">
      <!-- $0.32$ -->
      <g style="fill:#262626;" transform="translate(25.5338255954 72.2234914096)scale(0.07497 -0.07497)">
       <use transform="scale(0.996264009963)" xlink:href="#CMR17-48"/>
       <use transform="translate(45.6904771171 0.0)scale(0.996264009963)" xlink:href="#CMMI12-58"/>
       <use transform="translate(72.7876542069 0.0)scale(0.996264009963)" xlink:href="#CMR17-51"/>
       <use transform="translate(118.478131324 0.0)scale(0.996264009963)" xlink:href="#CMR17-50"/>
      </g>
     </g>
    </g>
    <g id="ytick_4">
     <g id="line2d_25">
      <path clip-path="url(#p26439d481b)" d="M 43.827503 41.697897 
L 272.759754 41.697897 
" style="fill:none;stroke:#cccccc;stroke-linecap:round;stroke-width:0.8;"/>
     </g>
     <g id="line2d_26"/>
     <g id="line2d_27"/>
     <g id="text_4">
      <!-- $0.34$ -->
      <defs>
       <path d="M 33.59375 64.40625 
C 33.59375 66.5 33.5 66.5 31.703125 66.5 
L 2 19.59375 
L 2 17 
L 27.796875 17 
L 27.796875 7.140625 
C 27.796875 3.5 27.59375 2.5 20.59375 2.5 
L 18.703125 2.5 
L 18.703125 0 
C 21.90625 0 27.296875 0 30.703125 0 
C 34.09375 0 39.5 0 42.703125 0 
L 42.703125 2.5 
L 40.796875 2.5 
C 33.796875 2.5 33.59375 3.5 33.59375 7.140625 
L 33.59375 17 
L 43.796875 17 
L 43.796875 19.59375 
L 33.59375 19.59375 
z
M 28.09375 57.859375 
L 28.09375 19.59375 
L 4 19.59375 
z
" id="CMR17-52"/>
      </defs>
      <g style="fill:#262626;" transform="translate(25.5338255954 43.565139375)scale(0.07497 -0.07497)">
       <use transform="scale(0.996264009963)" xlink:href="#CMR17-48"/>
       <use transform="translate(45.6904771171 0.0)scale(0.996264009963)" xlink:href="#CMMI12-58"/>
       <use transform="translate(72.7876542069 0.0)scale(0.996264009963)" xlink:href="#CMR17-51"/>
       <use transform="translate(118.478131324 0.0)scale(0.996264009963)" xlink:href="#CMR17-52"/>
      </g>
     </g>
    </g>
    <g id="ytick_5">
     <g id="line2d_28">
      <path clip-path="url(#p26439d481b)" d="M 43.827503 13.039545 
L 272.759754 13.039545 
" style="fill:none;stroke:#cccccc;stroke-linecap:round;stroke-width:0.8;"/>
     </g>
     <g id="line2d_29"/>
     <g id="line2d_30"/>
     <g id="text_5">
      <!-- $0.36$ -->
      <defs>
       <path d="M 10.59375 34 
C 10.59375 57.65625 21.796875 63 28.296875 63 
C 30.40625 63 35.5 62.640625 37.5 59 
C 35.90625 59 32.90625 59 32.90625 55.515625 
C 32.90625 52.828125 35.09375 51.921875 36.5 51.921875 
C 37.40625 51.921875 40.09375 52.3125 40.09375 55.625 
C 40.09375 61.78125 35.09375 65.296875 28.203125 65.296875 
C 16.296875 65.296875 3.796875 52.96875 3.796875 31 
C 3.796875 3.953125 15.09375 -2 23.09375 -2 
C 32.796875 -2 42 6.671875 42 20.046875 
C 42 32.515625 33.90625 41.59375 23.703125 41.59375 
C 17.59375 41.59375 13.09375 37.609375 10.59375 30.625 
z
M 23.09375 0.390625 
C 10.796875 0.390625 10.796875 18.75 10.796875 22.4375 
C 10.796875 29.625 14.203125 40 23.5 40 
C 25.203125 40 30.09375 40 33.40625 33.125 
C 35.203125 29.21875 35.203125 25.140625 35.203125 20.140625 
C 35.203125 14.75 35.203125 10.78125 33.09375 6.78125 
C 30.90625 2.671875 27.703125 0.390625 23.09375 0.390625 
" id="CMR17-54"/>
      </defs>
      <g style="fill:#262626;" transform="translate(25.5338255954 14.9067873404)scale(0.07497 -0.07497)">
       <use transform="scale(0.996264009963)" xlink:href="#CMR17-48"/>
       <use transform="translate(45.6904771171 0.0)scale(0.996264009963)" xlink:href="#CMMI12-58"/>
       <use transform="translate(72.7876542069 0.0)scale(0.996264009963)" xlink:href="#CMR17-51"/>
       <use transform="translate(118.478131324 0.0)scale(0.996264009963)" xlink:href="#CMR17-54"/>
      </g>
     </g>
    </g>
    <g id="text_6">
     <!-- fraction protected -->
     <defs>
      <path d="M 15.5 61.078125 
C 15.5 63.265625 13.703125 65.15625 11.40625 65.15625 
C 9.203125 65.15625 7.296875 63.375 7.296875 61.078125 
C 7.296875 58.890625 9.09375 57 11.40625 57 
C 13.59375 57 15.5 58.796875 15.5 61.078125 
M 3.796875 42.28125 
L 3.796875 39.703125 
C 9.40625 39.703125 10.203125 39.09375 10.203125 34.328125 
L 10.203125 6.671875 
C 10.203125 2.875 9.796875 2.390625 3.40625 2.390625 
L 3.40625 -0.203125 
C 5.796875 0 10.09375 0 12.59375 0 
C 15 0 19.09375 0 21.40625 -0.203125 
L 21.40625 2.390625 
C 15.5 2.390625 15.296875 2.984375 15.296875 6.5625 
L 15.296875 43.375 
z
" id="CMR17-105"/>
      <path d="M 36 25.828125 
C 36 32.375 36 35.84375 31.796875 39.734375 
C 28.09375 43 23.796875 44 20.40625 44 
C 12.5 44 6.796875 37.609375 6.796875 30.796875 
C 6.796875 27 9.796875 27 10.40625 27 
C 11.703125 27 14 27.78125 14 30.53125 
C 14 33 12.09375 34.078125 10.40625 34.078125 
C 10 34.078125 9.5 33.96875 9.203125 33.875 
C 11.296875 40.5 16.703125 42.40625 20.203125 42.40625 
C 25.203125 42.40625 30.703125 37.953125 30.703125 29.453125 
L 30.703125 25 
C 24.796875 25 17.703125 24.203125 12.09375 21.203125 
C 5.796875 17.703125 4 12.703125 4 8.90625 
C 4 1.203125 13 -1 18.296875 -1 
C 23.796875 -1 28.90625 2.171875 31.09375 7.984375 
C 31.296875 3.640625 34.09375 -0.28125 38.5 -0.28125 
C 40.59375 -0.28125 45.90625 1.09375 45.90625 8.859375 
L 45.90625 14.375 
L 44.09375 14.375 
L 44.09375 8.78125 
C 44.09375 2.78125 41.40625 2 40.09375 2 
C 36 2 36 7.15625 36 11.53125 
z
M 30.703125 13.59375 
C 30.703125 4.953125 24.5 0.59375 19 0.59375 
C 14 0.59375 10.09375 4.296875 10.09375 8.90625 
C 10.09375 11.890625 11.40625 17.1875 17.203125 20.390625 
C 22 23.09375 27.5 23.5 30.703125 23.5 
z
" id="CMR17-97"/>
      <path d="M 43.09375 21.1875 
C 43.09375 34 33.796875 44 22.90625 44 
C 12 44 2.703125 34 2.703125 21.1875 
C 2.703125 8.609375 12 -1 22.90625 -1 
C 33.796875 -1 43.09375 8.609375 43.09375 21.1875 
M 22.90625 0.796875 
C 18.203125 0.796875 14.203125 3.59375 11.90625 7.5 
C 9.40625 11.984375 9.09375 17.59375 9.09375 22 
C 9.09375 26.203125 9.296875 31.40625 11.90625 35.90625 
C 13.90625 39.203125 17.796875 42.40625 22.90625 42.40625 
C 27.40625 42.40625 31.203125 39.90625 33.59375 36.40625 
C 36.703125 31.703125 36.703125 25.109375 36.703125 22 
C 36.703125 18.09375 36.5 12.109375 33.796875 7.296875 
C 31 2.703125 26.703125 0.796875 22.90625 0.796875 
" id="CMR17-111"/>
      <path d="M 34.90625 35 
C 33 35 30.203125 35 30.203125 31.515625 
C 30.203125 28.71875 32.5 27.921875 33.796875 27.921875 
C 34.5 27.921875 37.40625 28.234375 37.40625 31.625 
C 37.40625 38.546875 30.59375 43.796875 22.90625 43.796875 
C 12.296875 43.796875 3.296875 34.03125 3.296875 21.296875 
C 3.296875 8.0625 12.703125 -1 22.90625 -1 
C 35.296875 -1 38.40625 10.578125 38.40625 11.6875 
C 38.40625 12.09375 38.296875 12.390625 37.59375 12.390625 
C 36.90625 12.390625 36.796875 12.296875 36.40625 10.984375 
C 33.796875 2.8125 28.09375 0.796875 23.796875 0.796875 
C 17.40625 0.796875 9.703125 6.671875 9.703125 21.390625 
C 9.703125 36.53125 17.09375 42 23 42 
C 26.90625 42 32.703125 40.203125 34.90625 35 
" id="CMR17-99"/>
      <path d="M 15.09375 40 
L 29.09375 40 
L 29.09375 42.578125 
L 15.09375 42.578125 
L 15.09375 61 
L 13.296875 61 
C 13.09375 50.703125 9.59375 41.6875 1.09375 41.6875 
L 1.09375 40 
L 9.796875 40 
L 9.796875 12.046875 
C 9.796875 10.15625 9.796875 -1 21.40625 -1 
C 27.296875 -1 30.703125 4.78125 30.703125 12.140625 
L 30.703125 17.8125 
L 28.90625 17.8125 
L 28.90625 12.234375 
C 28.90625 5.375 26.203125 0.796875 22 0.796875 
C 19.09375 0.796875 15.09375 2.78125 15.09375 11.84375 
z
" id="CMR17-116"/>
      <path d="M 15 23.390625 
C 15 33 19.09375 42 26.59375 42 
C 27.296875 42 28 41.90625 28.703125 41.59375 
C 28.703125 41.59375 26.5 40.890625 26.5 38.3125 
C 26.5 35.90625 28.40625 34.90625 29.90625 34.90625 
C 31.09375 34.90625 33.296875 35.609375 33.296875 38.40625 
C 33.296875 41.609375 30.09375 43.59375 26.703125 43.59375 
C 19.09375 43.59375 15.796875 36.203125 14.796875 32.703125 
L 14.703125 32.703125 
L 14.703125 43.59375 
L 3.09375 42.5 
L 3.09375 39.90625 
C 9 39.90625 9.90625 39.296875 9.90625 34.5 
L 9.90625 6.6875 
C 9.90625 2.875 9.5 2.390625 3.09375 2.390625 
L 3.09375 -0.203125 
C 5.5 0 10.09375 0 12.703125 0 
C 15.59375 0 20.703125 0 23.40625 -0.203125 
L 23.40625 2.390625 
C 16.203125 2.390625 15 2.390625 15 6.875 
z
" id="CMR17-114"/>
      <path d="M 22 -16.609375 
C 15.59375 -16.609375 15.203125 -16.203125 15.203125 -12.328125 
L 15.203125 6.28125 
C 18.09375 2.09375 22.296875 -0.59375 27.59375 -0.59375 
C 37.59375 -0.59375 47.703125 8.171875 47.703125 21.6875 
C 47.703125 34.234375 39 43.78125 28.703125 43.78125 
C 22.703125 43.78125 17.796875 40.5 15 36.53125 
L 15 43.78125 
L 3.09375 42.6875 
L 3.09375 40.109375 
C 9 40.109375 9.90625 39.5 9.90625 34.734375 
L 9.90625 -12.328125 
C 9.90625 -16.109375 9.5 -16.609375 3.09375 -16.609375 
L 3.09375 -19.1875 
C 5.5 -19 9.90625 -19 12.5 -19 
C 15.09375 -19 19.59375 -19 22 -19.1875 
z
M 15.203125 31.4375 
C 15.203125 32.84375 15.203125 34.921875 19.09375 38.609375 
C 19.59375 39.015625 23 42 28 42 
C 35.296875 42 41.296875 32.9375 41.296875 21.59375 
C 41.296875 10.25 34.90625 1 27 1 
C 23.40625 1 19.5 2.6875 16.5 7.375 
C 15.203125 9.5625 15.203125 10.15625 15.203125 11.75 
z
" id="CMR17-112"/>
      <path d="M 29.203125 67.59375 
L 29.203125 65 
C 35.09375 65 36 64.40625 36 59.6875 
L 36 36.640625 
C 35.59375 37.140625 31.5 43.59375 23.40625 43.59375 
C 13.203125 43.59375 3.296875 34.5 3.296875 21.3125 
C 3.296875 8.203125 12.59375 -1 22.40625 -1 
C 30.90625 -1 35.296875 5.265625 35.796875 5.9375 
L 35.796875 -0.984375 
L 47.90625 -0.984375 
L 47.90625 2 
C 42 2 41.09375 2.59375 41.09375 7.390625 
L 41.09375 68.6875 
z
M 35.796875 11.796875 
C 35.796875 8.796875 34 6.09375 31.703125 4.09375 
C 28.296875 1.09375 24.90625 0.59375 23 0.59375 
C 20.09375 0.59375 9.703125 2.09375 9.703125 21.1875 
C 9.703125 40.8125 21.296875 42 23.90625 42 
C 28.5 42 32.203125 39.40625 34.5 35.796875 
C 35.796875 33.703125 35.796875 33.40625 35.796875 31.609375 
z
" id="CMR17-100"/>
      <path d="M 41.5 30.203125 
C 41.5 35.296875 40.5 43.59375 28.703125 43.59375 
C 20.796875 43.59375 16.703125 37.5 15.203125 33.5 
L 15.09375 33.5 
L 15.09375 43.59375 
L 3.296875 42.5 
L 3.296875 39.90625 
C 9.203125 39.90625 10.09375 39.296875 10.09375 34.5 
L 10.09375 6.6875 
C 10.09375 2.875 9.703125 2.390625 3.296875 2.390625 
L 3.296875 -0.203125 
C 5.703125 0 10.09375 0 12.703125 0 
C 15.296875 0 19.796875 0 22.203125 -0.203125 
L 22.203125 2.390625 
C 15.796875 2.390625 15.40625 2.78125 15.40625 6.6875 
L 15.40625 25.90625 
C 15.40625 35.109375 21 42 28 42 
C 35.40625 42 36.203125 35.40625 36.203125 30.59375 
L 36.203125 6.6875 
C 36.203125 2.875 35.796875 2.390625 29.40625 2.390625 
L 29.40625 -0.203125 
C 31.796875 0 36.203125 0 38.796875 0 
C 41.40625 0 45.90625 0 48.296875 -0.203125 
L 48.296875 2.390625 
C 41.90625 2.390625 41.5 2.78125 41.5 6.6875 
z
" id="CMR17-110"/>
      <path d="M 15.296875 40 
L 26.703125 40 
L 26.703125 42.578125 
L 15.09375 42.578125 
L 15.09375 54.59375 
C 15.09375 62.84375 19.296875 68 23.59375 68 
C 24.90625 68 26.40625 67.609375 27.40625 66.90625 
C 26.59375 66.703125 24.5 66.015625 24.5 63.53125 
C 24.5 60.953125 26.5 60.15625 27.90625 60.15625 
C 29.296875 60.15625 31.296875 60.953125 31.296875 63.546875 
C 31.296875 67.3125 27.703125 69.59375 23.703125 69.59375 
C 18 69.59375 10.203125 64.9375 10.203125 54.390625 
L 10.203125 42.578125 
L 2.203125 42.578125 
L 2.203125 40 
L 10.203125 40 
L 10.203125 6.671875 
C 10.203125 2.875 9.796875 2.390625 3.40625 2.390625 
L 3.40625 -0.203125 
C 5.796875 0 10.40625 0 13 0 
C 15.90625 0 21 0 23.703125 -0.203125 
L 23.703125 2.390625 
C 16.5 2.390625 15.296875 2.390625 15.296875 6.859375 
z
" id="CMR17-102"/>
      <path d="M 38.09375 23 
C 38.5 23.40625 38.5 23.609375 38.5 24.625 
C 38.5 34.96875 33.09375 44 21.703125 44 
C 11.09375 44 2.703125 33.890625 2.703125 21.609375 
C 2.703125 8.609375 12.203125 -1 22.796875 -1 
C 34 -1 38.40625 9.484375 38.40625 11.5625 
C 38.40625 12.25 37.796875 12.25 37.59375 12.25 
C 36.90625 12.25 36.796875 12.046875 36.40625 10.875 
C 34.203125 4.140625 28.703125 0.796875 23.5 0.796875 
C 19.203125 0.796875 14.90625 3.171875 12.203125 7.5 
C 9.09375 12.546875 9.09375 18.375 9.09375 23 
z
M 9.203125 24.5 
C 9.90625 39.140625 17.59375 42.40625 21.59375 42.40625 
C 28.40625 42.40625 33 35.890625 33.09375 24.5 
z
" id="CMR17-101"/>
     </defs>
     <g style="fill:#262626;" transform="translate(20.790363578 106.34603541)rotate(-90.0)scale(0.09 -0.09)">
      <use transform="scale(0.996264009963)" xlink:href="#CMR17-102"/>
      <use transform="translate(27.4735124144 0.0)scale(0.996264009963)" xlink:href="#CMR17-114"/>
      <use transform="translate(62.7542802138 0.0)scale(0.996264009963)" xlink:href="#CMR17-97"/>
      <use transform="translate(108.444757331 0.0)scale(0.996264009963)" xlink:href="#CMR17-99"/>
      <use transform="translate(148.930417794 0.0)scale(0.996264009963)" xlink:href="#CMR17-116"/>
      <use transform="translate(184.211185593 0.0)scale(0.996264009963)" xlink:href="#CMR17-105"/>
      <use transform="translate(209.082244075 0.0)scale(0.996264009963)" xlink:href="#CMR17-111"/>
      <use transform="translate(254.772721192 0.0)scale(0.996264009963)" xlink:href="#CMR17-110"/>
      <use transform="translate(335.744057319 0.0)scale(0.996264009963)" xlink:href="#CMR17-112"/>
      <use transform="translate(386.6394271 0.0)scale(0.996264009963)" xlink:href="#CMR17-114"/>
      <use transform="translate(421.920194899 0.0)scale(0.996264009963)" xlink:href="#CMR17-111"/>
      <use transform="translate(467.610672016 0.0)scale(0.996264009963)" xlink:href="#CMR17-116"/>
      <use transform="translate(502.891439816 0.0)scale(0.996264009963)" xlink:href="#CMR17-101"/>
      <use transform="translate(543.377100278 0.0)scale(0.996264009963)" xlink:href="#CMR17-99"/>
      <use transform="translate(583.862760741 0.0)scale(0.996264009963)" xlink:href="#CMR17-116"/>
      <use transform="translate(619.14352854 0.0)scale(0.996264009963)" xlink:href="#CMR17-101"/>
      <use transform="translate(659.629189003 0.0)scale(0.996264009963)" xlink:href="#CMR17-100"/>
     </g>
    </g>
   </g>
   <g id="line2d_31">
    <path clip-path="url(#p26439d481b)" d="M 43.827503 122.50786 
L 55.876569 107.62689 
L 67.925634 94.828116 
L 79.9747 83.775137 
L 92.023766 74.194252 
L 104.072832 65.859848 
L 116.121898 58.5905 
L 128.170964 52.230561 
L 140.22003 46.65205 
L 152.269095 41.747399 
L 164.318161 37.425878 
L 176.367227 33.61079 
L 188.416293 30.236687 
L 200.465359 27.247731 
L 212.514425 24.59599 
L 224.563491 22.240242 
L 236.612556 20.144882 
L 248.661622 18.279012 
L 260.710688 16.615797 
L 272.759754 15.131848 
" style="fill:none;stroke:#1b9e77;stroke-linecap:round;stroke-width:1.4;"/>
   </g>
   <g id="patch_3">
    <path d="M 43.827503 127.672953 
L 272.759754 127.672953 
" style="fill:none;stroke:#262626;stroke-linecap:square;stroke-linejoin:miter;"/>
   </g>
   <g id="patch_4">
    <path d="M 43.827503 127.672953 
L 43.827503 13.039545 
" style="fill:none;stroke:#262626;stroke-linecap:square;stroke-linejoin:miter;"/>
   </g>
   <g id="text_7">
    <!-- {\sf \textbf{A}} -->
    <defs>
     <path d="M 47.40625 65.65625 
C 45.90625 70 43 70 41 70 
L 32.203125 70 
C 30.203125 70 27.296875 70 25.796875 65.65625 
L 4.703125 4.734375 
C 4.203125 3.4375 4.203125 3.234375 4.203125 2.734375 
C 4.203125 0 6.703125 0 8.09375 0 
L 11.703125 0 
C 13.5 0 16.59375 0 18 3.96875 
L 21.90625 15 
L 49.59375 15 
L 53 5.46875 
C 54.203125 1.984375 54.90625 0 59.703125 0 
L 65.09375 0 
C 66.5 0 69 0 69 2.6875 
C 69 3.1875 69 3.390625 68.5 4.703125 
z
M 32.09375 45.171875 
C 33.59375 49.625 34.90625 53.46875 35.703125 57.125 
L 35.796875 57.125 
C 36.296875 54.703125 36.296875 54.5 37.09375 52.15625 
L 46.59375 23.6875 
L 24.90625 23.6875 
z
" id="CMSSBX10-65"/>
    </defs>
    <g style="fill:#262626;" transform="translate(9.48766506643 16.4785470541)scale(0.09 -0.09)">
     <use transform="scale(0.996264009963)" xlink:href="#CMSSBX10-65"/>
    </g>
   </g>
  </g>
  <g id="axes_2">
   <g id="patch_5">
    <path d="M 43.827503 257.670798 
L 272.759754 257.670798 
L 272.759754 143.03739 
L 43.827503 143.03739 
z
" style="fill:#ffffff;"/>
   </g>
   <g id="matplotlib.axis_3">
    <g id="xtick_6">
     <g id="line2d_32">
      <path clip-path="url(#p0084d0c31d)" d="M 43.827503 257.670798 
L 43.827503 143.03739 
" style="fill:none;stroke:#cccccc;stroke-linecap:round;stroke-width:0.8;"/>
     </g>
     <g id="line2d_33"/>
     <g id="line2d_34"/>
     <g id="text_8">
      <!-- $0.0$ -->
      <g style="fill:#262626;" transform="translate(38.3072567107 265.857585641)scale(0.07497 -0.07497)">
       <use transform="scale(0.996264009963)" xlink:href="#CMR17-48"/>
       <use transform="translate(45.6904771171 0.0)scale(0.996264009963)" xlink:href="#CMMI12-58"/>
       <use transform="translate(72.7876542069 0.0)scale(0.996264009963)" xlink:href="#CMR17-48"/>
      </g>
     </g>
    </g>
    <g id="xtick_7">
     <g id="line2d_35">
      <path clip-path="url(#p0084d0c31d)" d="M 101.060566 257.670798 
L 101.060566 143.03739 
" style="fill:none;stroke:#cccccc;stroke-linecap:round;stroke-width:0.8;"/>
     </g>
     <g id="line2d_36"/>
     <g id="line2d_37"/>
     <g id="text_9">
      <!-- $0.5$ -->
      <defs>
       <path d="M 11.40625 57.6875 
C 12.40625 57.28125 16.5 56 20.703125 56 
C 30 56 35.09375 61.109375 38 64.0625 
C 38 64.953125 38 65.5 37.40625 65.5 
C 37.296875 65.5 37.09375 65.5 36.296875 65.046875 
C 32.796875 63.40625 28.703125 62.078125 23.703125 62.078125 
C 20.703125 62.078125 16.203125 62.484375 11.296875 64.671875 
C 10.203125 65.171875 10 65.171875 9.90625 65.171875 
C 9.40625 65.171875 9.296875 65.0625 9.296875 63.078125 
L 9.296875 34.421875 
C 9.296875 32.640625 9.296875 32.140625 10.296875 32.140625 
C 10.796875 32.140625 11 32.34375 11.5 33.03125 
C 14.703125 37.515625 19.09375 39.40625 24.09375 39.40625 
C 27.59375 39.40625 35.09375 37.21875 35.09375 20.140625 
C 35.09375 16.953125 35.09375 11.171875 32.09375 6.578125 
C 29.59375 2.484375 25.703125 0.390625 21.40625 0.390625 
C 14.796875 0.390625 8.09375 5 6.296875 12.71875 
C 6.703125 12.609375 7.5 12.421875 7.90625 12.421875 
C 9.203125 12.421875 11.703125 13.125 11.703125 16.21875 
C 11.703125 18.90625 9.796875 20 7.90625 20 
C 5.59375 20 4.09375 18.59375 4.09375 15.796875 
C 4.09375 7.09375 11 -2 21.59375 -2 
C 31.90625 -2 41.703125 6.875 41.703125 19.75 
C 41.703125 31.71875 33.90625 41 24.203125 41 
C 19.09375 41 14.796875 39.109375 11.40625 35.53125 
z
" id="CMR17-53"/>
      </defs>
      <g style="fill:#262626;" transform="translate(95.5403195141 265.857585641)scale(0.07497 -0.07497)">
       <use transform="scale(0.996264009963)" xlink:href="#CMR17-48"/>
       <use transform="translate(45.6904771171 0.0)scale(0.996264009963)" xlink:href="#CMMI12-58"/>
       <use transform="translate(72.7876542069 0.0)scale(0.996264009963)" xlink:href="#CMR17-53"/>
      </g>
     </g>
    </g>
    <g id="xtick_8">
     <g id="line2d_38">
      <path clip-path="url(#p0084d0c31d)" d="M 158.293628 257.670798 
L 158.293628 143.03739 
" style="fill:none;stroke:#cccccc;stroke-linecap:round;stroke-width:0.8;"/>
     </g>
     <g id="line2d_39"/>
     <g id="line2d_40"/>
     <g id="text_10">
      <!-- $1.0$ -->
      <defs>
       <path d="M 26.59375 63.40625 
C 26.59375 65.5 26.5 65.5 25.09375 65.5 
C 21.203125 61.1875 15.296875 59.796875 9.703125 59.796875 
C 9.40625 59.796875 8.90625 59.796875 8.796875 59.5 
C 8.703125 59.296875 8.703125 59.09375 8.703125 57 
C 11.796875 57 17 57.59375 21 59.984375 
L 21 7.203125 
C 21 3.6875 20.796875 2.5 12.203125 2.5 
L 9.203125 2.5 
L 9.203125 0 
C 14 0 19 0 23.796875 0 
C 28.59375 0 33.59375 0 38.40625 0 
L 38.40625 2.5 
L 35.40625 2.5 
C 26.796875 2.5 26.59375 3.59375 26.59375 7.15625 
z
" id="CMR17-49"/>
      </defs>
      <g style="fill:#262626;" transform="translate(152.773382318 265.857585641)scale(0.07497 -0.07497)">
       <use transform="scale(0.996264009963)" xlink:href="#CMR17-49"/>
       <use transform="translate(45.6904771171 0.0)scale(0.996264009963)" xlink:href="#CMMI12-58"/>
       <use transform="translate(72.7876542069 0.0)scale(0.996264009963)" xlink:href="#CMR17-48"/>
      </g>
     </g>
    </g>
    <g id="xtick_9">
     <g id="line2d_41">
      <path clip-path="url(#p0084d0c31d)" d="M 215.526691 257.670798 
L 215.526691 143.03739 
" style="fill:none;stroke:#cccccc;stroke-linecap:round;stroke-width:0.8;"/>
     </g>
     <g id="line2d_42"/>
     <g id="line2d_43"/>
     <g id="text_11">
      <!-- $1.5$ -->
      <g style="fill:#262626;" transform="translate(210.006445121 265.857585641)scale(0.07497 -0.07497)">
       <use transform="scale(0.996264009963)" xlink:href="#CMR17-49"/>
       <use transform="translate(45.6904771171 0.0)scale(0.996264009963)" xlink:href="#CMMI12-58"/>
       <use transform="translate(72.7876542069 0.0)scale(0.996264009963)" xlink:href="#CMR17-53"/>
      </g>
     </g>
    </g>
    <g id="xtick_10">
     <g id="line2d_44">
      <path clip-path="url(#p0084d0c31d)" d="M 272.759754 257.670798 
L 272.759754 143.03739 
" style="fill:none;stroke:#cccccc;stroke-linecap:round;stroke-width:0.8;"/>
     </g>
     <g id="line2d_45"/>
     <g id="line2d_46"/>
     <g id="text_12">
      <!-- $2.0$ -->
      <g style="fill:#262626;" transform="translate(267.239507924 265.857585641)scale(0.07497 -0.07497)">
       <use transform="scale(0.996264009963)" xlink:href="#CMR17-50"/>
       <use transform="translate(45.6904771171 0.0)scale(0.996264009963)" xlink:href="#CMMI12-58"/>
       <use transform="translate(72.7876542069 0.0)scale(0.996264009963)" xlink:href="#CMR17-48"/>
      </g>
     </g>
    </g>
    <g id="text_13">
     <!-- non-additivity of costs $\nu$ -->
     <defs>
      <path d="M 39 34.328125 
C 41.5 40.40625 46 40.40625 47.40625 40.40625 
L 47.40625 43 
C 45.5 43 43 43 41.09375 43 
C 39 43 35.703125 43 33.703125 43.09375 
L 33.703125 40.5 
C 37.5 40.203125 37.59375 37.40625 37.59375 36.609375 
C 37.59375 35.625 37.40625 35.125 36.90625 33.921875 
L 26 7.015625 
L 14.09375 36.03125 
C 13.59375 37.21875 13.59375 37.90625 13.59375 38.015625 
C 13.59375 40.203125 15.90625 40.40625 18.296875 40.40625 
L 18.296875 43.09375 
C 15.90625 43 11.59375 43 9.09375 43 
C 6.40625 43 3.203125 43 1 43.09375 
L 1 40.40625 
C 6.40625 40.40625 7 39.90625 8.296875 36.71875 
L 23.203125 0.234375 
C 18.703125 -11.53125 16.09375 -18.40625 9.796875 -18.40625 
C 8.703125 -18.40625 6.203125 -18.109375 4.40625 -16.3125 
C 6.703125 -16.109375 7.703125 -14.71875 7.703125 -13.015625 
C 7.703125 -11.328125 6.5 -9.828125 4.5 -9.828125 
C 2.296875 -9.828125 1.203125 -11.328125 1.203125 -13.125 
C 1.203125 -17.109375 5.296875 -20 9.796875 -20 
C 15.59375 -20 19.203125 -14.40625 21.203125 -9.4375 
z
" id="CMR17-121"/>
      <path d="M 30.90625 42.140625 
C 30.90625 43.953125 30.796875 44.046875 30.203125 44.046875 
C 29.796875 44.046875 29.703125 43.953125 28.5 42.453125 
C 28.203125 42.046875 27.296875 41.03125 27 40.640625 
C 23.796875 44.046875 19.296875 44.046875 17.59375 44.046875 
C 6.5 44.046875 2.5 38.234375 2.5 32.4375 
C 2.5 23.40625 12.703125 21.328125 15.59375 20.703125 
C 21.90625 19.421875 24.09375 19.015625 26.203125 17.203125 
C 27.5 16.015625 29.703125 13.8125 29.703125 10.21875 
C 29.703125 6 27.296875 0.59375 18.09375 0.59375 
C 9.40625 0.59375 6.296875 7.1875 4.5 15.953125 
C 4.203125 17.34375 4.203125 17.453125 3.40625 17.453125 
C 2.59375 17.453125 2.5 17.34375 2.5 15.359375 
L 2.5 0.984375 
C 2.5 -0.796875 2.59375 -0.90625 3.203125 -0.90625 
C 3.703125 -0.90625 3.796875 -0.796875 4.296875 0 
C 4.90625 0.890625 6.40625 3.296875 7 4.3125 
C 9 1.609375 12.5 -1 18.09375 -1 
C 28 -1 33.296875 4.421875 33.296875 12.25 
C 33.296875 17.375 30.59375 20.078125 29.296875 21.28125 
C 26.296875 24.390625 22.796875 25.09375 18.59375 25.890625 
C 13.09375 27.109375 6.09375 28.515625 6.09375 34.640625 
C 6.09375 37.234375 7.5 42.765625 17.59375 42.765625 
C 28.296875 42.765625 28.90625 32.71875 29.09375 29.5 
C 29.203125 29 29.703125 28.890625 30 28.890625 
C 30.90625 28.890625 30.90625 29.203125 30.90625 30.90625 
z
" id="CMR17-115"/>
      <path d="M 22 43.015625 
C 22 43.40625 21.703125 44 20.90625 44 
C 20.203125 44 10.796875 42.984375 9.296875 42.984375 
C 8.203125 42.875 7.203125 42.78125 7.203125 40.984375 
C 7.203125 40 8 40 9.40625 40 
C 14.09375 40 14.40625 39.296875 14.40625 38.203125 
C 14.40625 37.796875 14.203125 36.609375 14.09375 36.21875 
L 5.296875 1 
C 5.296875 0.59375 5.59375 0 6.296875 0 
L 8.40625 0 
C 9.796875 0 25 3.59375 36.703125 15.5625 
C 49.59375 28.84375 51.40625 41.125 51.40625 41.515625 
C 51.40625 43.109375 50.09375 44 48.796875 44 
C 45.90625 44 45.203125 41.3125 45 40.625 
C 39.09375 19.75 25.40625 7.390625 12.09375 3 
z
" id="CMMI12-23"/>
      <path d="M 39.09375 33.796875 
C 40 36 41.59375 40 47.40625 40 
L 47.40625 42.59375 
C 45.5 42.59375 43 42.59375 41.09375 42.59375 
C 39 42.59375 35.703125 42.59375 33.703125 42.6875 
L 33.703125 40.09375 
C 36.203125 39.890625 37.59375 38.703125 37.59375 36.109375 
C 37.59375 35.203125 37.59375 35 37 33.609375 
L 26 5.890625 
L 14.09375 35.71875 
C 13.5 37.015625 13.5 37.203125 13.5 37.609375 
C 13.5 40 16.796875 40 18.296875 40 
L 18.296875 42.6875 
C 15.90625 42.59375 11.5 42.59375 9 42.59375 
C 6.296875 42.59375 3.203125 42.59375 1 42.6875 
L 1 40 
C 4.796875 40 6.90625 40 8.09375 36.90625 
L 22.59375 0.6875 
C 23.203125 -0.796875 23.296875 -1 24.203125 -1 
C 25.09375 -1 25.203125 -0.796875 25.796875 0.6875 
z
" id="CMR17-118"/>
      <path d="M 25.5 19 
L 25.5 23.375 
L 0.40625 23.375 
L 0.40625 19 
z
" id="CMR17-45"/>
     </defs>
     <g style="fill:#262626;" transform="translate(109.38085223 276.536537983)scale(0.09 -0.09)">
      <use transform="scale(0.996264009963)" xlink:href="#CMR17-110"/>
      <use transform="translate(50.8953697803 0.0)scale(0.996264009963)" xlink:href="#CMR17-111"/>
      <use transform="translate(96.5858468974 0.0)scale(0.996264009963)" xlink:href="#CMR17-110"/>
      <use transform="translate(147.481216678 0.0)scale(0.996264009963)" xlink:href="#CMR17-45"/>
      <use transform="translate(177.557183025 0.0)scale(0.996264009963)" xlink:href="#CMR17-97"/>
      <use transform="translate(223.247660142 0.0)scale(0.996264009963)" xlink:href="#CMR17-100"/>
      <use transform="translate(274.143029922 0.0)scale(0.996264009963)" xlink:href="#CMR17-100"/>
      <use transform="translate(325.038399702 0.0)scale(0.996264009963)" xlink:href="#CMR17-105"/>
      <use transform="translate(349.909458184 0.0)scale(0.996264009963)" xlink:href="#CMR17-116"/>
      <use transform="translate(385.190225984 0.0)scale(0.996264009963)" xlink:href="#CMR17-105"/>
      <use transform="translate(410.061284465 0.0)scale(0.996264009963)" xlink:href="#CMR17-118"/>
      <use transform="translate(458.354200313 0.0)scale(0.996264009963)" xlink:href="#CMR17-105"/>
      <use transform="translate(483.225258795 0.0)scale(0.996264009963)" xlink:href="#CMR17-116"/>
      <use transform="translate(515.903572662 0.0)scale(0.996264009963)" xlink:href="#CMR17-121"/>
      <use transform="translate(594.272454857 0.0)scale(0.996264009963)" xlink:href="#CMR17-111"/>
      <use transform="translate(639.962931974 0.0)scale(0.996264009963)" xlink:href="#CMR17-102"/>
      <use transform="translate(697.512410735 0.0)scale(0.996264009963)" xlink:href="#CMR17-99"/>
      <use transform="translate(737.998071198 0.0)scale(0.996264009963)" xlink:href="#CMR17-111"/>
      <use transform="translate(783.688548315 0.0)scale(0.996264009963)" xlink:href="#CMR17-115"/>
      <use transform="translate(819.48988595 0.0)scale(0.996264009963)" xlink:href="#CMR17-116"/>
      <use transform="translate(854.77065375 0.0)scale(0.996264009963)" xlink:href="#CMR17-115"/>
      <use transform="translate(920.647957732 0.0)scale(0.996264009963)" xlink:href="#CMMI12-23"/>
     </g>
    </g>
   </g>
   <g id="matplotlib.axis_4">
    <g id="ytick_6">
     <g id="line2d_47">
      <path clip-path="url(#p0084d0c31d)" d="M 43.827503 256.546941 
L 272.759754 256.546941 
" style="fill:none;stroke:#cccccc;stroke-linecap:round;stroke-width:0.8;"/>
     </g>
     <g id="line2d_48"/>
     <g id="line2d_49"/>
     <g id="text_14">
      <!-- $-1$ -->
      <defs>
       <path d="M 65.90625 23 
C 67.59375 23 69.40625 23 69.40625 25 
C 69.40625 27 67.59375 27 65.90625 27 
L 11.796875 27 
C 10.09375 27 8.296875 27 8.296875 25 
C 8.296875 23 10.09375 23 11.796875 23 
z
" id="CMSY10-0"/>
      </defs>
      <g style="fill:#262626;" transform="translate(29.9055541719 258.414183888)scale(0.07497 -0.07497)">
       <use transform="scale(0.996264009963)" xlink:href="#CMSY10-0"/>
       <use transform="translate(77.4874676506 0.0)scale(0.996264009963)" xlink:href="#CMR17-49"/>
      </g>
     </g>
    </g>
    <g id="ytick_7">
     <g id="line2d_50">
      <path clip-path="url(#p0084d0c31d)" d="M 43.827503 200.354094 
L 272.759754 200.354094 
" style="fill:none;stroke:#cccccc;stroke-linecap:round;stroke-width:0.8;"/>
     </g>
     <g id="line2d_51"/>
     <g id="line2d_52"/>
     <g id="text_15">
      <!-- $0$ -->
      <g style="fill:#262626;" transform="translate(36.574317671 202.221336762)scale(0.07497 -0.07497)">
       <use transform="scale(0.996264009963)" xlink:href="#CMR17-48"/>
      </g>
     </g>
    </g>
    <g id="ytick_8">
     <g id="line2d_53">
      <path clip-path="url(#p0084d0c31d)" d="M 43.827503 144.161247 
L 272.759754 144.161247 
" style="fill:none;stroke:#cccccc;stroke-linecap:round;stroke-width:0.8;"/>
     </g>
     <g id="line2d_54"/>
     <g id="line2d_55"/>
     <g id="text_16">
      <!-- $1$ -->
      <g style="fill:#262626;" transform="translate(36.574317671 146.028489635)scale(0.07497 -0.07497)">
       <use transform="scale(0.996264009963)" xlink:href="#CMR17-49"/>
      </g>
     </g>
    </g>
    <g id="text_17">
     <!-- protection -->
     <g style="fill:#262626;" transform="translate(15.9466500623 220.844819928)rotate(-90.0)scale(0.09 -0.09)">
      <use transform="scale(0.996264009963)" xlink:href="#CMR17-112"/>
      <use transform="translate(50.8953697803 0.0)scale(0.996264009963)" xlink:href="#CMR17-114"/>
      <use transform="translate(86.1761375798 0.0)scale(0.996264009963)" xlink:href="#CMR17-111"/>
      <use transform="translate(131.866614697 0.0)scale(0.996264009963)" xlink:href="#CMR17-116"/>
      <use transform="translate(167.147382496 0.0)scale(0.996264009963)" xlink:href="#CMR17-101"/>
      <use transform="translate(207.633042959 0.0)scale(0.996264009963)" xlink:href="#CMR17-99"/>
      <use transform="translate(248.118703422 0.0)scale(0.996264009963)" xlink:href="#CMR17-116"/>
      <use transform="translate(283.399471221 0.0)scale(0.996264009963)" xlink:href="#CMR17-105"/>
      <use transform="translate(308.270529703 0.0)scale(0.996264009963)" xlink:href="#CMR17-111"/>
      <use transform="translate(353.96100682 0.0)scale(0.996264009963)" xlink:href="#CMR17-110"/>
     </g>
     <!-- correlation coefficient -->
     <defs>
      <path d="M 64.90625 43.1875 
C 62.5 43.1875 55.09375 43.1875 53.203125 42.796875 
C 52.59375 42.578125 52.40625 42.578125 51.203125 42.578125 
L 39.796875 42.578125 
L 39.796875 54.203125 
C 39.796875 63.640625 47.40625 68 53.40625 68 
C 55.296875 68 59.59375 67.5 61.796875 64.078125 
C 60.796875 64.078125 57.59375 64.078125 57.59375 60.59375 
C 57.59375 58.203125 59.203125 57 61.203125 57 
C 63 57 64.796875 58 64.796875 60.703125 
C 64.796875 65.703125 60 69.59375 53.796875 69.59375 
C 50.703125 69.59375 44.203125 68.90625 39 63.984375 
C 37.703125 66.59375 34.40625 69.59375 28.703125 69.59375 
C 21 69.59375 9.90625 65.125 9.90625 54.203125 
L 9.90625 42.578125 
L 1.90625 42.578125 
L 1.90625 40 
L 9.90625 40 
L 9.90625 6.671875 
C 9.90625 2.875 9.5 2.390625 3.09375 2.390625 
L 3.09375 -0.203125 
C 5.5 0 9.90625 0 12.40625 0 
C 15 0 19.40625 0 21.796875 -0.203125 
L 21.796875 2.390625 
C 15.40625 2.390625 15 2.78125 15 6.671875 
L 15 40 
L 34.90625 40 
L 34.90625 6.671875 
C 34.90625 2.875 34.5 2.390625 28.09375 2.390625 
L 28.09375 -0.203125 
C 30.5 0 34.90625 0 37.40625 0 
C 40 0 44.40625 0 46.796875 -0.203125 
L 46.796875 2.390625 
C 40.40625 2.390625 40 2.78125 40 6.671875 
L 40 40 
L 54.703125 40 
C 59 40 59.796875 39.09375 59.796875 34.71875 
L 59.796875 6.671875 
C 59.796875 2.875 59.40625 2.390625 53 2.390625 
L 53 -0.203125 
C 55.40625 0 59.796875 0 62.296875 0 
C 64.90625 0 69.296875 0 71.703125 -0.203125 
L 71.703125 2.390625 
C 65.296875 2.390625 64.90625 2.78125 64.90625 6.671875 
z
M 14.796875 42.578125 
L 14.796875 54.203125 
C 14.796875 63.546875 22.203125 68 28.40625 68 
C 31.90625 68 35.296875 66.5 36.796875 64.078125 
C 35.796875 64.078125 32.5 64.078125 32.5 60.578125 
C 32.5 58.78125 33.5 57.59375 35.09375 57.09375 
C 34.90625 56.1875 34.90625 54.234375 34.90625 54.140625 
L 34.90625 42.578125 
z
" id="CMR17-14"/>
      <path d="M 15.296875 68.6875 
L 3.40625 67.59375 
L 3.40625 65 
C 9.296875 65 10.203125 64.40625 10.203125 59.640625 
L 10.203125 6.65625 
C 10.203125 2.875 9.796875 2.390625 3.40625 2.390625 
L 3.40625 -0.203125 
C 5.796875 0 10.203125 0 12.703125 0 
C 15.296875 0 19.703125 0 22.09375 -0.203125 
L 22.09375 2.390625 
C 15.703125 2.390625 15.296875 2.78125 15.296875 6.65625 
z
" id="CMR17-108"/>
     </defs>
     <g style="fill:#262626;" transform="translate(25.1620921544 243.385133534)rotate(-90.0)scale(0.09 -0.09)">
      <use transform="scale(0.996264009963)" xlink:href="#CMR17-99"/>
      <use transform="translate(40.4856604627 0.0)scale(0.996264009963)" xlink:href="#CMR17-111"/>
      <use transform="translate(86.1761375798 0.0)scale(0.996264009963)" xlink:href="#CMR17-114"/>
      <use transform="translate(121.456905379 0.0)scale(0.996264009963)" xlink:href="#CMR17-114"/>
      <use transform="translate(156.737673179 0.0)scale(0.996264009963)" xlink:href="#CMR17-101"/>
      <use transform="translate(197.223333641 0.0)scale(0.996264009963)" xlink:href="#CMR17-108"/>
      <use transform="translate(222.094392123 0.0)scale(0.996264009963)" xlink:href="#CMR17-97"/>
      <use transform="translate(267.78486924 0.0)scale(0.996264009963)" xlink:href="#CMR17-116"/>
      <use transform="translate(303.06563704 0.0)scale(0.996264009963)" xlink:href="#CMR17-105"/>
      <use transform="translate(327.936695522 0.0)scale(0.996264009963)" xlink:href="#CMR17-111"/>
      <use transform="translate(373.627172639 0.0)scale(0.996264009963)" xlink:href="#CMR17-110"/>
      <use transform="translate(454.598508766 0.0)scale(0.996264009963)" xlink:href="#CMR17-99"/>
      <use transform="translate(495.084169229 0.0)scale(0.996264009963)" xlink:href="#CMR17-111"/>
      <use transform="translate(543.377085076 0.0)scale(0.996264009963)" xlink:href="#CMR17-101"/>
      <use transform="translate(583.862745539 0.0)scale(0.996264009963)" xlink:href="#CMR17-14"/>
      <use transform="translate(658.476027397 0.0)scale(0.996264009963)" xlink:href="#CMR17-99"/>
      <use transform="translate(698.96168786 0.0)scale(0.996264009963)" xlink:href="#CMR17-105"/>
      <use transform="translate(723.832746342 0.0)scale(0.996264009963)" xlink:href="#CMR17-101"/>
      <use transform="translate(764.318406805 0.0)scale(0.996264009963)" xlink:href="#CMR17-110"/>
      <use transform="translate(812.611322652 0.0)scale(0.996264009963)" xlink:href="#CMR17-116"/>
     </g>
    </g>
   </g>
   <g id="line2d_56">
    <path clip-path="url(#p0084d0c31d)" d="M 43.827503 200.354046 
L 55.876569 201.209354 
L 67.925634 202.075938 
L 79.9747 202.928273 
L 92.023766 203.750479 
L 104.072832 204.534716 
L 116.121898 205.271351 
L 128.170964 205.96018 
L 140.22003 206.600501 
L 152.269095 207.19297 
L 164.318161 207.739095 
L 176.367227 208.240872 
L 188.416293 208.700714 
L 200.465359 209.121184 
L 212.514425 209.50493 
L 224.563491 209.854577 
L 236.612556 210.172699 
L 248.661622 210.461818 
L 260.710688 210.724259 
L 272.759754 210.962269 
" style="fill:none;stroke:#1b9e77;stroke-linecap:round;stroke-width:1.4;"/>
   </g>
   <g id="patch_6">
    <path d="M 43.827503 257.670798 
L 272.759754 257.670798 
" style="fill:none;stroke:#262626;stroke-linecap:square;stroke-linejoin:miter;"/>
   </g>
   <g id="patch_7">
    <path d="M 43.827503 257.670798 
L 43.827503 143.03739 
" style="fill:none;stroke:#262626;stroke-linecap:square;stroke-linejoin:miter;"/>
   </g>
   <g id="text_18">
    <!-- {\sf \textbf{B}} -->
    <defs>
     <path d="M 13.90625 70 
C 10.296875 70 9.09375 68.90625 9.09375 65.203125 
L 9.09375 5.40625 
C 9.09375 1.8125 10.203125 0.609375 13.90625 0.609375 
L 41.296875 0.609375 
C 48.703125 0.609375 67.09375 0.609375 67.09375 19.203125 
C 67.09375 33.6875 53.203125 35.9375 49.5 36.5625 
C 58.703125 38.671875 64 43.9375 64 51.8125 
C 64 70 42.703125 70 38.5 70 
z
M 23.203125 40 
L 23.203125 61.109375 
L 34.90625 61.109375 
C 38.796875 61.109375 50.40625 61.109375 50.40625 51.5625 
C 50.40625 40 37.296875 40 34.796875 40 
z
M 23.203125 9 
L 23.203125 32.71875 
L 35.796875 32.71875 
C 39.296875 32.71875 53.203125 32.71875 53.203125 19.546875 
C 53.203125 9 42.5 9 37.703125 9 
z
" id="CMSSBX10-66"/>
    </defs>
    <g style="fill:#262626;" transform="translate(9.48766506643 146.476392406)scale(0.09 -0.09)">
     <use transform="scale(0.996264009963)" xlink:href="#CMSSBX10-66"/>
    </g>
   </g>
  </g>
 </g>
 <defs>
  <clipPath id="p0084d0c31d">
   <rect height="114.633408138" width="228.932251214" x="43.8275027485" y="143.037390162"/>
  </clipPath>
  <clipPath id="p26439d481b">
   <rect height="114.633408138" width="228.932251214" x="43.8275027485" y="13.03954481"/>
  </clipPath>
 </defs>
</svg>
